<svg width="775" height="951" xmlns="http://www.w3.org/2000/svg" xmlns:xlink="http://www.w3.org/1999/xlink" xml:space="preserve" overflow="hidden"><defs><clipPath id="clip0"><rect x="1826" y="117" width="775" height="951"/></clipPath></defs><g clip-path="url(#clip0)" transform="translate(-1826 -117)"><path d="M2311.41 146.01C2445.81 149.504 2562.15 273.321 2577.52 435.791 2591.87 587.429 2513.52 722.494 2396.21 763.117L2377.23 768.456 2372.36 731.234 2385.56 728.327C2486.68 692.642 2554 573.355 2541.31 439.218 2528.61 305.081 2440.11 200.541 2334.08 184.461L2300.77 183.523 2295.93 146.541Z" fill="#E36414" fill-rule="evenodd"/><path d="M2305 342 2316.68 347.084C2350.95 367.417 2375 415.019 2375 470.5 2375 525.981 2350.95 573.583 2316.68 593.916L2305 599 2305 560.714 2323.86 540.614C2335.21 522.67 2342.23 497.881 2342.23 470.5 2342.23 443.119 2335.21 418.33 2323.86 400.386L2305 380.286Z" fill="#E36414" fill-rule="evenodd"/><path d="M2083 571.5C2083 568.463 2085.46 566 2088.5 566L2290.5 566C2293.54 566 2296 568.463 2296 571.5L2296 593.5C2296 596.538 2293.54 599 2290.5 599L2088.5 599C2085.46 599 2083 596.538 2083 593.5Z" fill="#E36414" fill-rule="evenodd"/><path d="M2070 330.667C2070 327.537 2072.54 325 2075.67 325L2277.33 325C2280.46 325 2283 327.537 2283 330.667L2283 353.333C2283 356.463 2280.46 359 2277.33 359L2075.67 359C2072.54 359 2070 356.463 2070 353.333Z" fill="#E36414" fill-rule="evenodd"/><path d="M2074 144.667C2074 141.537 2076.54 139 2079.67 139L2281.33 139C2284.46 139 2287 141.537 2287 144.667L2287 167.333C2287 170.463 2284.46 173 2281.33 173L2079.67 173C2076.54 173 2074 170.463 2074 167.333Z" fill="#E36414" fill-rule="evenodd"/><path d="M1873 144.5C1873 141.462 1875.46 139 1878.5 139L2080.5 139C2083.54 139 2086 141.462 2086 144.5L2086 166.5C2086 169.537 2083.54 172 2080.5 172L1878.5 172C1875.46 172 1873 169.537 1873 166.5Z" fill="#E36414" fill-rule="evenodd"/><path d="M1881.5 161C1884.54 161 1887 163.462 1887 166.5L1887 368.5C1887 371.537 1884.54 374 1881.5 374L1859.5 374C1856.46 374 1854 371.537 1854 368.5L1854 166.5C1854 163.462 1856.46 161 1859.5 161Z" fill="#E36414" fill-rule="evenodd"/><path d="M1881.5 366C1884.54 366 1887 368.462 1887 371.5L1887 573.5C1887 576.537 1884.54 579 1881.5 579L1859.5 579C1856.46 579 1854 576.537 1854 573.5L1854 371.5C1854 368.462 1856.46 366 1859.5 366Z" fill="#E36414" fill-rule="evenodd"/><path d="M1881.5 706C1884.54 706 1887 708.462 1887 711.5L1887 913.5C1887 916.537 1884.54 919 1881.5 919L1859.5 919C1856.46 919 1854 916.537 1854 913.5L1854 711.5C1854 708.462 1856.46 706 1859.5 706Z" fill="#E36414" fill-rule="evenodd"/><path d="M1881.5 792C1884.54 792 1887 794.463 1887 797.5L1887 999.5C1887 1002.54 1884.54 1005 1881.5 1005L1859.5 1005C1856.46 1005 1854 1002.54 1854 999.5L1854 797.5C1854 794.463 1856.46 792 1859.5 792Z" fill="#E36414" fill-rule="evenodd"/><path d="M1873 1016.67C1873 1013.54 1875.54 1011 1878.67 1011L2080.33 1011C2083.46 1011 2086 1013.54 2086 1016.67L2086 1039.33C2086 1042.46 2083.46 1045 2080.33 1045L1878.67 1045C1875.54 1045 1873 1042.46 1873 1039.33Z" fill="#E36414" fill-rule="evenodd"/><path d="M2087.33 792C2090.46 792 2093 794.537 2093 797.667L2093 999.333C2093 1002.46 2090.46 1005 2087.33 1005L2064.67 1005C2061.54 1005 2059 1002.46 2059 999.333L2059 797.667C2059 794.537 2061.54 792 2064.67 792Z" fill="#E36414" fill-rule="evenodd"/><path d="M2087.33 558C2090.46 558 2093 560.537 2093 563.666L2093 765.333C2093 768.463 2090.46 771 2087.33 771L2064.67 771C2061.54 771 2059 768.463 2059 765.333L2059 563.666C2059 560.537 2061.54 558 2064.67 558Z" fill="#E36414" fill-rule="evenodd"/><path d="M2087.33 329C2090.46 329 2093 331.537 2093 334.667L2093 536.333C2093 539.463 2090.46 542 2087.33 542L2064.67 542C2061.54 542 2059 539.463 2059 536.333L2059 334.667C2059 331.537 2061.54 329 2064.67 329Z" fill="#E36414" fill-rule="evenodd"/><path d="M2063 742.333C2063 738.836 2065.84 736 2069.33 736L2319.67 736C2323.16 736 2326 738.836 2326 742.333L2326 767.667C2326 771.165 2323.16 774 2319.67 774L2069.33 774C2065.84 774 2063 771.165 2063 767.667Z" fill="#E36414" fill-rule="evenodd"/><path d="M2066.89 350.002C2068.27 351.141 2068.47 353.187 2067.33 354.574L1902.84 554.86C1901.7 556.246 1899.66 556.447 1898.27 555.309L1888.23 547.063C1886.85 545.924 1886.64 543.878 1887.78 542.492L2052.27 342.205C2053.41 340.819 2055.46 340.618 2056.85 341.757Z" fill="#E36414" fill-rule="evenodd"/><path d="M2059.33 333.128C2058.15 334.475 2056.1 334.606 2054.75 333.421L1884.06 183.227C1882.71 182.042 1882.58 179.989 1883.77 178.642L1892.35 168.889C1893.54 167.542 1895.59 167.411 1896.93 168.596L2067.62 318.791C2068.97 319.976 2069.1 322.028 2067.92 323.375Z" fill="#E36414" fill-rule="evenodd"/><path d="M2278.77 326.735C2277.71 328.181 2275.68 328.494 2274.23 327.433L2090.89 192.983C2089.44 191.922 2089.13 189.889 2090.19 188.443L2097.87 177.966C2098.93 176.519 2100.96 176.207 2102.41 177.267L2285.76 311.718C2287.21 312.779 2287.52 314.811 2286.46 316.258Z" fill="#E36414" fill-rule="evenodd"/><path d="M2299.89 326.826C2298.11 326.628 2296.82 325.023 2297.02 323.24L2314.91 161.826C2315.11 160.043 2316.71 158.758 2318.5 158.956L2331.41 160.387C2333.19 160.584 2334.48 162.19 2334.28 163.973L2316.39 325.386C2316.19 327.169 2314.59 328.454 2312.81 328.257Z" fill="#E36414" fill-rule="evenodd"/><path d="M2308.96 339.314C2308.09 337.745 2308.65 335.768 2310.22 334.898L2452.24 256.132C2453.81 255.262 2455.79 255.829 2456.66 257.398L2462.96 268.759C2463.83 270.328 2463.27 272.305 2461.7 273.175L2319.67 351.941C2318.11 352.811 2316.13 352.245 2315.26 350.676Z" fill="#E36414" fill-rule="evenodd"/><path d="M2339.01 574.497C2340.8 574.372 2342.35 575.721 2342.48 577.511L2353.83 739.515C2353.96 741.304 2352.61 742.857 2350.82 742.982L2337.86 743.89C2336.07 744.016 2334.52 742.667 2334.39 740.877L2323.04 578.873C2322.91 577.083 2324.26 575.531 2326.05 575.406Z" fill="#E36414" fill-rule="evenodd"/><path d="M2349.56 574.577C2348.54 573.103 2348.91 571.08 2350.38 570.057L2558.55 425.666C2560.03 424.644 2562.05 425.01 2563.07 426.484L2570.48 437.159C2571.5 438.633 2571.14 440.657 2569.66 441.679L2361.49 586.07C2360.02 587.093 2357.99 586.727 2356.97 585.253Z" fill="#E36414" fill-rule="evenodd"/><path d="M2050.79 604.172C2052.17 605.31 2052.37 607.357 2051.24 608.743L1886.74 809.029C1885.61 810.416 1883.56 810.616 1882.17 809.478L1872.13 801.232C1870.75 800.094 1870.55 798.047 1871.68 796.661L2036.18 596.374C2037.31 594.988 2039.36 594.787 2040.75 595.926Z" fill="#E36414" fill-rule="evenodd"/><path d="M2045.01 772.243C2045.4 773.993 2044.3 775.732 2042.55 776.127L1884.13 811.872C1882.38 812.267 1880.65 811.169 1880.25 809.419L1877.39 796.746C1877 794.996 1878.09 793.257 1879.84 792.862L2038.26 757.117C2040.01 756.722 2041.75 757.82 2042.15 759.57Z" fill="#E36414" fill-rule="evenodd"/><path d="M2047.7 1007.45C2046.38 1008.66 2044.32 1008.57 2043.11 1007.25L1871.82 820.583C1870.61 819.261 1870.69 817.206 1872.02 815.993L1881.59 807.209C1882.91 805.996 1884.97 806.085 1886.18 807.406L2057.47 994.072C2058.68 995.394 2058.59 997.449 2057.27 998.662Z" fill="#E36414" fill-rule="evenodd"/><path d="M2251 971.5C2251 918.204 2294.2 875 2347.5 875 2400.8 875 2444 918.204 2444 971.5 2444 1024.8 2400.8 1068 2347.5 1068 2294.2 1068 2251 1024.8 2251 971.5Z" fill="#E36414" fill-rule="evenodd"/><path d="M2031 1021C2031 996.147 2050.92 976 2075.5 976 2100.08 976 2120 996.147 2120 1021 2120 1045.85 2100.08 1066 2075.5 1066 2050.92 1066 2031 1045.85 2031 1021Z" fill="#E36414" fill-rule="evenodd"/><path d="M2031 754.5C2031 729.923 2050.92 710 2075.5 710 2100.08 710 2120 729.923 2120 754.5 2120 779.077 2100.08 799 2075.5 799 2050.92 799 2031 779.077 2031 754.5Z" fill="#E36414" fill-rule="evenodd"/><path d="M2031 580.5C2031 555.923 2050.92 536 2075.5 536 2100.08 536 2120 555.923 2120 580.5 2120 605.077 2100.08 625 2075.5 625 2050.92 625 2031 605.077 2031 580.5Z" fill="#E36414" fill-rule="evenodd"/><path d="M2031 332.5C2031 307.923 2050.92 288 2075.5 288 2100.08 288 2120 307.923 2120 332.5 2120 357.077 2100.08 377 2075.5 377 2050.92 377 2031 357.077 2031 332.5Z" fill="#E36414" fill-rule="evenodd"/><path d="M2031 161.5C2031 136.923 2050.92 117 2075.5 117 2100.08 117 2120 136.923 2120 161.5 2120 186.077 2100.08 206 2075.5 206 2050.92 206 2031 186.077 2031 161.5Z" fill="#E36414" fill-rule="evenodd"/><path d="M1826 161.5C1826 136.923 1845.92 117 1870.5 117 1895.08 117 1915 136.923 1915 161.5 1915 186.077 1895.08 206 1870.5 206 1845.92 206 1826 186.077 1826 161.5Z" fill="#E36414" fill-rule="evenodd"/><path d="M1826 381.5C1826 356.923 1845.92 337 1870.5 337 1895.08 337 1915 356.923 1915 381.5 1915 406.077 1895.08 426 1870.5 426 1845.92 426 1826 406.077 1826 381.5Z" fill="#E36414" fill-rule="evenodd"/><path d="M1826 580.5C1826 555.923 1845.92 536 1870.5 536 1895.08 536 1915 555.923 1915 580.5 1915 605.077 1895.08 625 1870.5 625 1845.92 625 1826 605.077 1826 580.5Z" fill="#E36414" fill-rule="evenodd"/><path d="M1826 805C1826 780.147 1845.92 760 1870.5 760 1895.08 760 1915 780.147 1915 805 1915 829.853 1895.08 850 1870.5 850 1845.92 850 1826 829.853 1826 805Z" fill="#E36414" fill-rule="evenodd"/><path d="M1826 1021C1826 996.147 1845.92 976 1870.5 976 1895.08 976 1915 996.147 1915 1021 1915 1045.85 1895.08 1066 1870.5 1066 1845.92 1066 1826 1045.85 1826 1021Z" fill="#E36414" fill-rule="evenodd"/><path d="M1839 691.5C1839 674.103 1853.1 660 1870.5 660 1887.9 660 1902 674.103 1902 691.5 1902 708.897 1887.9 723 1870.5 723 1853.1 723 1839 708.897 1839 691.5Z" fill="#E36414" fill-rule="evenodd"/><path d="M2307 754.5C2307 729.923 2326.92 710 2351.5 710 2376.08 710 2396 729.923 2396 754.5 2396 779.077 2376.08 799 2351.5 799 2326.92 799 2307 779.077 2307 754.5Z" fill="#E36414" fill-rule="evenodd"/><path d="M2512 435.5C2512 410.923 2531.92 391 2556.5 391 2581.08 391 2601 410.923 2601 435.5 2601 460.077 2581.08 480 2556.5 480 2531.92 480 2512 460.077 2512 435.5Z" fill="#E36414" fill-rule="evenodd"/><path d="M2439 255.5C2439 230.923 2458.92 211 2483.5 211 2508.08 211 2528 230.923 2528 255.5 2528 280.077 2508.08 300 2483.5 300 2458.92 300 2439 280.077 2439 255.5Z" fill="#E36414" fill-rule="evenodd"/><path d="M2278 161.5C2278 136.923 2297.92 117 2322.5 117 2347.08 117 2367 136.923 2367 161.5 2367 186.077 2347.08 206 2322.5 206 2297.92 206 2278 186.077 2278 161.5Z" fill="#E36414" fill-rule="evenodd"/><path d="M2258 340.5C2258 315.923 2278.15 296 2303 296 2327.85 296 2348 315.923 2348 340.5 2348 365.077 2327.85 385 2303 385 2278.15 385 2258 365.077 2258 340.5Z" fill="#E36414" fill-rule="evenodd"/><path d="M2282 581.5C2282 556.923 2302.15 537 2327 537 2351.85 537 2372 556.923 2372 581.5 2372 606.077 2351.85 626 2327 626 2302.15 626 2282 606.077 2282 581.5Z" fill="#E36414" fill-rule="evenodd"/></g></svg>