<svg width="776" height="951" xmlns="http://www.w3.org/2000/svg" xmlns:xlink="http://www.w3.org/1999/xlink" xml:space="preserve" overflow="hidden"><defs><clipPath id="clip0"><rect x="66" y="117" width="776" height="951"/></clipPath></defs><g clip-path="url(#clip0)" transform="translate(-66 -117)"><path d="M551.974 146.01C686.372 149.504 802.71 273.321 818.086 435.791 832.437 587.429 754.084 722.494 636.776 763.117L617.79 768.456 612.925 731.234 626.119 728.327C727.243 692.642 794.564 573.355 781.869 439.218 769.174 305.081 680.671 200.541 574.648 184.461L541.33 183.523 536.496 146.541Z" fill-rule="evenodd"/><path d="M546 342 557.676 347.084C591.951 367.417 616 415.019 616 470.5 616 525.981 591.951 573.583 557.676 593.916L546 599 546 560.714 564.859 540.614C576.211 522.67 583.231 497.881 583.231 470.5 583.231 443.119 576.211 418.33 564.859 400.386L546 380.286Z" fill-rule="evenodd"/><path d="M324 571.5C324 568.463 326.463 566 329.5 566L530.5 566C533.537 566 536 568.463 536 571.5L536 593.5C536 596.538 533.537 599 530.5 599L329.5 599C326.463 599 324 596.538 324 593.5Z" fill-rule="evenodd"/><path d="M311 330.667C311 327.537 313.537 325 316.667 325L518.333 325C521.463 325 524 327.537 524 330.667L524 353.333C524 356.463 521.463 359 518.333 359L316.667 359C313.537 359 311 356.463 311 353.333Z" fill-rule="evenodd"/><path d="M315 144.667C315 141.537 317.537 139 320.667 139L522.333 139C525.463 139 528 141.537 528 144.667L528 167.333C528 170.463 525.463 173 522.333 173L320.667 173C317.537 173 315 170.463 315 167.333Z" fill-rule="evenodd"/><path d="M114 144.5C114 141.462 116.463 139 119.5 139L321.5 139C324.537 139 327 141.462 327 144.5L327 166.5C327 169.537 324.537 172 321.5 172L119.5 172C116.463 172 114 169.537 114 166.5Z" fill-rule="evenodd"/><path d="M122.333 161C125.463 161 128 163.537 128 166.666L128 368.333C128 371.463 125.463 374 122.333 374L99.6668 374C96.5371 374 94 371.463 94 368.333L94 166.666C94 163.537 96.5371 161 99.6668 161Z" fill-rule="evenodd"/><path d="M122.333 366C125.463 366 128 368.537 128 371.667L128 573.333C128 576.463 125.463 579 122.333 579L99.6666 579C96.5369 579 93.9998 576.463 93.9998 573.333L93.9998 371.667C93.9998 368.537 96.5369 366 99.6666 366Z" fill-rule="evenodd"/><path d="M122.333 706C125.463 706 128 708.537 128 711.667L128 913.333C128 916.463 125.463 919 122.333 919L99.6666 919C96.5369 919 93.9998 916.463 93.9998 913.333L93.9998 711.667C93.9998 708.537 96.5369 706 99.6666 706Z" fill-rule="evenodd"/><path d="M122.333 792C125.463 792 128 794.537 128 797.667L128 999.333C128 1002.46 125.463 1005 122.333 1005L99.6668 1005C96.5371 1005 94 1002.46 94 999.333L94 797.667C94 794.537 96.5371 792 99.6668 792Z" fill-rule="evenodd"/><path d="M114 1016.67C114 1013.54 116.537 1011 119.667 1011L321.333 1011C324.463 1011 327 1013.54 327 1016.67L327 1039.33C327 1042.46 324.463 1045 321.333 1045L119.667 1045C116.537 1045 114 1042.46 114 1039.33Z" fill-rule="evenodd"/><path d="M327.5 792C330.538 792 333 794.463 333 797.5L333 999.5C333 1002.54 330.538 1005 327.5 1005L305.5 1005C302.463 1005 300 1002.54 300 999.5L300 797.5C300 794.463 302.463 792 305.5 792Z" fill-rule="evenodd"/><path d="M327.5 558C330.538 558 333 560.462 333 563.5L333 765.5C333 768.537 330.538 771 327.5 771L305.5 771C302.463 771 300 768.537 300 765.5L300 563.5C300 560.462 302.463 558 305.5 558Z" fill-rule="evenodd"/><path d="M327.5 329C330.538 329 333 331.462 333 334.5L333 536.5C333 539.538 330.538 542 327.5 542L305.5 542C302.463 542 300 539.538 300 536.5L300 334.5C300 331.462 302.463 329 305.5 329Z" fill-rule="evenodd"/><path d="M303 742.333C303 738.836 305.835 736 309.333 736L560.666 736C564.164 736 567 738.836 567 742.333L567 767.667C567 771.164 564.164 774 560.666 774L309.333 774C305.835 774 303 771.164 303 767.667Z" fill-rule="evenodd"/><path d="M307.448 350.002C308.834 351.141 309.035 353.187 307.897 354.574L143.406 554.86C142.268 556.246 140.221 556.447 138.835 555.309L128.795 547.063C127.408 545.924 127.207 543.878 128.346 542.492L292.837 342.205C293.975 340.819 296.022 340.618 297.408 341.757Z" fill-rule="evenodd"/><path d="M299.898 333.128C298.713 334.475 296.66 334.606 295.314 333.421L124.624 183.227C123.277 182.042 123.146 179.989 124.331 178.642L132.913 168.889C134.098 167.542 136.151 167.411 137.497 168.596L308.188 318.791C309.534 319.976 309.665 322.028 308.48 323.375Z" fill-rule="evenodd"/><path d="M519.338 326.735C518.277 328.181 516.245 328.494 514.798 327.433L331.45 192.983C330.003 191.922 329.69 189.889 330.751 188.443L338.434 177.966C339.495 176.519 341.527 176.207 342.974 177.267L526.322 311.718C527.769 312.779 528.082 314.811 527.021 316.258Z" fill-rule="evenodd"/><path d="M540.456 326.826C538.673 326.628 537.388 325.023 537.585 323.24L555.472 161.826C555.67 160.043 557.275 158.758 559.058 158.956L571.971 160.387C573.754 160.584 575.039 162.19 574.842 163.973L556.955 325.386C556.757 327.169 555.152 328.454 553.369 328.257Z" fill-rule="evenodd"/><path d="M549.521 339.314C548.651 337.745 549.217 335.768 550.786 334.898L692.807 256.132C694.376 255.262 696.353 255.829 697.223 257.398L703.524 268.759C704.395 270.328 703.828 272.305 702.259 273.175L560.238 351.941C558.669 352.811 556.692 352.245 555.822 350.676Z" fill-rule="evenodd"/><path d="M579.573 574.497C581.363 574.372 582.915 575.721 583.041 577.511L594.393 739.515C594.518 741.304 593.169 742.857 591.38 742.982L578.42 743.89C576.63 744.016 575.078 742.667 574.953 740.877L563.6 578.873C563.475 577.083 564.824 575.531 566.613 575.406Z" fill-rule="evenodd"/><path d="M590.128 574.577C589.105 573.103 589.471 571.08 590.945 570.057L799.117 425.666C800.591 424.644 802.615 425.01 803.637 426.484L811.042 437.159C812.065 438.633 811.698 440.657 810.224 441.679L602.052 586.07C600.578 587.093 598.555 586.727 597.532 585.253Z" fill-rule="evenodd"/><path d="M291.35 604.172C292.736 605.31 292.937 607.357 291.798 608.743L127.308 809.029C126.169 810.416 124.123 810.616 122.736 809.478L112.696 801.232C111.31 800.094 111.109 798.047 112.248 796.661L276.738 596.374C277.877 594.988 279.923 594.787 281.31 595.926Z" fill-rule="evenodd"/><path d="M285.57 772.243C285.964 773.993 284.866 775.732 283.116 776.127L124.697 811.872C122.947 812.267 121.209 811.169 120.814 809.419L117.954 796.746C117.559 794.996 118.658 793.257 120.408 792.862L278.827 757.117C280.576 756.722 282.315 757.82 282.71 759.57Z" fill-rule="evenodd"/><path d="M288.261 1007.45C286.94 1008.66 284.885 1008.57 283.672 1007.25L112.382 820.583C111.169 819.261 111.258 817.206 112.579 815.993L122.152 807.209C123.474 805.996 125.528 806.085 126.741 807.406L298.031 994.072C299.244 995.394 299.156 997.449 297.834 998.662Z" fill-rule="evenodd"/><path d="M492 971.5C492 918.204 535.204 875 588.5 875 641.796 875 685 918.204 685 971.5 685 1024.8 641.796 1068 588.5 1068 535.204 1068 492 1024.8 492 971.5Z" fill-rule="evenodd"/><path d="M271 1021C271 996.147 291.147 976 316 976 340.853 976 361 996.147 361 1021 361 1045.85 340.853 1066 316 1066 291.147 1066 271 1045.85 271 1021Z" fill-rule="evenodd"/><path d="M271 754.5C271 729.923 291.147 710 316 710 340.853 710 361 729.923 361 754.5 361 779.077 340.853 799 316 799 291.147 799 271 779.077 271 754.5Z" fill-rule="evenodd"/><path d="M271 580.5C271 555.923 291.147 536 316 536 340.853 536 361 555.923 361 580.5 361 605.077 340.853 625 316 625 291.147 625 271 605.077 271 580.5Z" fill-rule="evenodd"/><path d="M271 332.5C271 307.923 291.147 288 316 288 340.853 288 361 307.923 361 332.5 361 357.077 340.853 377 316 377 291.147 377 271 357.077 271 332.5Z" fill-rule="evenodd"/><path d="M271 161.5C271 136.923 291.147 117 316 117 340.853 117 361 136.923 361 161.5 361 186.077 340.853 206 316 206 291.147 206 271 186.077 271 161.5Z" fill-rule="evenodd"/><path d="M66 161.5C66 136.923 86.1472 117 111 117 135.853 117 156 136.923 156 161.5 156 186.077 135.853 206 111 206 86.1472 206 66 186.077 66 161.5Z" fill-rule="evenodd"/><path d="M66 381.5C66 356.923 86.1472 337 111 337 135.853 337 156 356.923 156 381.5 156 406.077 135.853 426 111 426 86.1472 426 66 406.077 66 381.5Z" fill-rule="evenodd"/><path d="M66 580.5C66 555.923 86.1472 536 111 536 135.853 536 156 555.923 156 580.5 156 605.077 135.853 625 111 625 86.1472 625 66 605.077 66 580.5Z" fill-rule="evenodd"/><path d="M66 805C66 780.147 86.1472 760 111 760 135.853 760 156 780.147 156 805 156 829.853 135.853 850 111 850 86.1472 850 66 829.853 66 805Z" fill-rule="evenodd"/><path d="M66 1021C66 996.147 86.1472 976 111 976 135.853 976 156 996.147 156 1021 156 1045.85 135.853 1066 111 1066 86.1472 1066 66 1045.85 66 1021Z" fill-rule="evenodd"/><path d="M80.0001 691.5C80.0001 674.103 93.8792 660 111 660 128.121 660 142 674.103 142 691.5 142 708.897 128.121 723 111 723 93.8792 723 80.0001 708.897 80.0001 691.5Z" fill-rule="evenodd"/><path d="M547 754.5C547 729.923 567.147 710 592 710 616.853 710 637 729.923 637 754.5 637 779.077 616.853 799 592 799 567.147 799 547 779.077 547 754.5Z" fill-rule="evenodd"/><path d="M752 435.5C752 410.923 772.147 391 797 391 821.853 391 842 410.923 842 435.5 842 460.077 821.853 480 797 480 772.147 480 752 460.077 752 435.5Z" fill-rule="evenodd"/><path d="M679 255.5C679 230.923 698.923 211 723.5 211 748.077 211 768 230.923 768 255.5 768 280.077 748.077 300 723.5 300 698.923 300 679 280.077 679 255.5Z" fill-rule="evenodd"/><path d="M519 161.5C519 136.923 538.923 117 563.5 117 588.077 117 608 136.923 608 161.5 608 186.077 588.077 206 563.5 206 538.923 206 519 186.077 519 161.5Z" fill-rule="evenodd"/><path d="M499 340.5C499 315.923 518.923 296 543.5 296 568.077 296 588 315.923 588 340.5 588 365.077 568.077 385 543.5 385 518.923 385 499 365.077 499 340.5Z" fill-rule="evenodd"/><path d="M523 581.5C523 556.923 542.923 537 567.5 537 592.077 537 612 556.923 612 581.5 612 606.077 592.077 626 567.5 626 542.923 626 523 606.077 523 581.5Z" fill-rule="evenodd"/></g></svg>